<svg width="128" height="128" viewBox="0 0 128 128" fill="none" xmlns="http://www.w3.org/2000/svg">
  <defs>
    <linearGradient id="mainGradient" x1="0%" y1="0%" x2="100%" y2="100%">
      <stop offset="0%" style="stop-color:#4A90E2;stop-opacity:1" />
      <stop offset="50%" style="stop-color:#2E5BBA;stop-opacity:1" />
      <stop offset="100%" style="stop-color:#1E3A8A;stop-opacity:1" />
    </linearGradient>
    <linearGradient id="accentGradient" x1="0%" y1="0%" x2="100%" y2="100%">
      <stop offset="0%" style="stop-color:#FF6B6B;stop-opacity:1" />
      <stop offset="100%" style="stop-color:#E53E3E;stop-opacity:1" />
    </linearGradient>
  </defs>
  
  <!-- Main circle -->
  <circle cx="64" cy="64" r="58" fill="url(#mainGradient)" stroke="#1E3A8A" stroke-width="4"/>
  
  <!-- Speaker icon -->
  <path d="M40 48v32l24-16z" fill="white"/>
  <path d="M72 40c12 0 16 8 16 16s-4 16-16 16" stroke="white" stroke-width="4" stroke-linecap="round" fill="none"/>
  <path d="M80 48c8 0 12 4 12 12s-4 12-12 12" stroke="white" stroke-width="4" stroke-linecap="round" fill="none"/>
  
  <!-- Sound waves -->
  <circle cx="96" cy="32" r="8" fill="url(#accentGradient)" opacity="0.9"/>
  <circle cx="104" cy="24" r="6" fill="url(#accentGradient)" opacity="0.7"/>
  <circle cx="88" cy="40" r="6" fill="url(#accentGradient)" opacity="0.7"/>
  <circle cx="112" cy="16" r="4" fill="url(#accentGradient)" opacity="0.5"/>
  <circle cx="80" cy="48" r="4" fill="url(#accentGradient)" opacity="0.5"/>
  
  <!-- Accessibility symbol -->
  <circle cx="32" cy="96" r="12" fill="#10B981"/>
  <path d="M26 90l6 6 12-12" stroke="white" stroke-width="3" stroke-linecap="round" stroke-linejoin="round"/>
  
  <!-- Text lines -->
  <rect x="20" y="20" width="24" height="3" rx="1.5" fill="white" opacity="0.8"/>
  <rect x="20" y="26" width="20" height="3" rx="1.5" fill="white" opacity="0.6"/>
  <rect x="20" y="32" width="16" height="3" rx="1.5" fill="white" opacity="0.4"/>
</svg>
